<svg xmlns="http://www.w3.org/2000/svg" viewBox="0 0 1200 675" role="img" aria-labelledby="title desc">
  <title id="title">SAIDIS press thumbnail</title>
  <desc id="desc">Abstract healthcare and artificial intelligence illustration for SAIDIS suicide prevention press items.</desc>
  <defs>
    <linearGradient id="bg" x1="0" x2="1" y1="0" y2="1">
      <stop offset="0" stop-color="#f0f7f0"/>
      <stop offset="0.52" stop-color="#d8efe0"/>
      <stop offset="1" stop-color="#bfe6d2"/>
    </linearGradient>
    <linearGradient id="card" x1="0" x2="1" y1="0" y2="1">
      <stop offset="0" stop-color="#ffffff" stop-opacity="0.94"/>
      <stop offset="1" stop-color="#e8f5e9" stop-opacity="0.9"/>
    </linearGradient>
    <filter id="shadow" x="-20%" y="-20%" width="140%" height="140%">
      <feDropShadow dx="0" dy="20" stdDeviation="28" flood-color="#1a6b2f" flood-opacity="0.22"/>
    </filter>
  </defs>
  <rect width="1200" height="675" fill="url(#bg)"/>
  <circle cx="1010" cy="110" r="190" fill="#9dd6bf" opacity="0.38"/>
  <circle cx="160" cy="575" r="250" fill="#007932" opacity="0.10"/>
  <g stroke="#1a6b2f" stroke-width="5" opacity="0.22" fill="none">
    <path d="M155 210h140l64-78 72 178 67-100h170"/>
    <path d="M735 455h118l42-52 47 118 45-66h120"/>
  </g>
  <g filter="url(#shadow)">
    <rect x="120" y="96" width="960" height="483" rx="44" fill="url(#card)"/>
    <rect x="120" y="96" width="960" height="483" rx="44" fill="none" stroke="#1a6b2f" stroke-opacity="0.18" stroke-width="3"/>
  </g>
  <g transform="translate(205 178)">
    <circle cx="156" cy="158" r="122" fill="#ffffff" stroke="#1a6b2f" stroke-opacity="0.18" stroke-width="4"/>
    <path d="M156 84c-39 0-70 30-70 67 0 51 52 76 70 116 18-40 70-65 70-116 0-37-31-67-70-67z" fill="#1a6b2f" opacity="0.92"/>
    <path d="M122 154h36v-36h24v36h36v24h-36v36h-24v-36h-36z" fill="#ffffff"/>
    <g fill="#1a6b2f">
      <circle cx="38" cy="34" r="9" opacity="0.5"/>
      <circle cx="280" cy="70" r="11" opacity="0.35"/>
      <circle cx="270" cy="252" r="8" opacity="0.45"/>
    </g>
  </g>
  <g transform="translate(514 184)" fill="#1a3a1f">
    <text x="0" y="0" font-family="Ubuntu, Arial, sans-serif" font-size="42" font-weight="700" letter-spacing="2">SAIDIS</text>
    <text x="0" y="72" font-family="Spectral, Georgia, serif" font-size="58" font-weight="700">Prevención del suicidio</text>
    <text x="0" y="132" font-family="Ubuntu, Arial, sans-serif" font-size="34" font-weight="500" fill="#1a6b2f">Inteligencia artificial clínica</text>
    <text x="0" y="202" font-family="Ubuntu, Arial, sans-serif" font-size="25" fill="#2d4a30">Sistema inteligente de alerta para apoyar</text>
    <text x="0" y="238" font-family="Ubuntu, Arial, sans-serif" font-size="25" fill="#2d4a30">la detección temprana de intentos severos.</text>
  </g>
  <g transform="translate(790 438)" stroke="#1a6b2f" stroke-width="4" fill="none" opacity="0.58">
    <circle cx="0" cy="0" r="8" fill="#1a6b2f"/>
    <circle cx="82" cy="-36" r="8" fill="#1a6b2f"/>
    <circle cx="164" cy="8" r="8" fill="#1a6b2f"/>
    <path d="M8-3 74-33M90-32 156 5"/>
  </g>
</svg>
